<svg width="350" height="150" viewBox="0 0 350 150" fill="none" xmlns="http://www.w3.org/2000/svg">
<g clip-path="url(#clip0_9_57)">
<rect x="32" y="46" width="52" height="20" fill="white"/>
<ellipse cx="307.557" cy="91.75" rx="13.8041" ry="21.75" fill="white"/>
<mask id="path-3-outside-1_9_57" maskUnits="userSpaceOnUse" x="1" y="17" width="349" height="123" fill="black">
<rect fill="white" x="1" y="17" width="349" height="123"/>
<path d="M11.2875 125.9L15.6275 36.3L21.9275 30L91.0875 27.9L97.8075 33.64L103.688 80.96L96.4075 88.24L85.3475 87.12L104.528 121L93.1875 127.44L69.5275 85.44L39.8475 82.36L41.2475 69.2L89.5475 74.24L85.4875 41.2L28.5075 43.16L24.4475 126.6L11.2875 125.9ZM121.011 119.6L115.691 112.18L122.411 62.34L128.291 56.74L169.311 53.38L175.751 56.88L187.651 80.4L183.031 89.78L139.491 98.88L136.691 86.14L171.831 78.58L165.951 66.96L134.591 69.34L129.551 107.84L177.711 116.8L175.191 129.68L121.011 119.6ZM213.022 121.42L191.882 52.82L204.482 48.9L221.702 104.76L257.402 55.2L268.042 62.9L224.642 123.24L213.022 121.42ZM281.162 120.44L275.002 113.3L278.362 65.28L284.662 59.26L331.142 57.3L338.002 63.74L339.402 116.66L332.402 123.38L281.162 120.44ZM326.102 109.8L325.122 70.74L291.102 72.14L288.722 107.7L326.102 109.8Z"/>
</mask>
<path d="M11.2875 125.9L15.6275 36.3L21.9275 30L91.0875 27.9L97.8075 33.64L103.688 80.96L96.4075 88.24L85.3475 87.12L104.528 121L93.1875 127.44L69.5275 85.44L39.8475 82.36L41.2475 69.2L89.5475 74.24L85.4875 41.2L28.5075 43.16L24.4475 126.6L11.2875 125.9ZM121.011 119.6L115.691 112.18L122.411 62.34L128.291 56.74L169.311 53.38L175.751 56.88L187.651 80.4L183.031 89.78L139.491 98.88L136.691 86.14L171.831 78.58L165.951 66.96L134.591 69.34L129.551 107.84L177.711 116.8L175.191 129.68L121.011 119.6ZM213.022 121.42L191.882 52.82L204.482 48.9L221.702 104.76L257.402 55.2L268.042 62.9L224.642 123.24L213.022 121.42ZM281.162 120.44L275.002 113.3L278.362 65.28L284.662 59.26L331.142 57.3L338.002 63.74L339.402 116.66L332.402 123.38L281.162 120.44ZM326.102 109.8L325.122 70.74L291.102 72.14L288.722 107.7L326.102 109.8Z" fill="#222831"/>
<path d="M11.2875 125.9L1.29921 125.416C1.03291 130.914 5.25977 135.594 10.7563 135.886L11.2875 125.9ZM15.6275 36.3L8.55643 29.2289C6.79938 30.986 5.75943 33.3343 5.63921 35.8162L15.6275 36.3ZM21.9275 30L21.624 20.0046C19.078 20.0819 16.6575 21.1278 14.8564 22.9289L21.9275 30ZM91.0875 27.9L97.5824 20.2963C95.6923 18.6818 93.2686 17.8292 90.784 17.9046L91.0875 27.9ZM97.8075 33.64L107.731 32.4069C107.423 29.9298 106.2 27.6574 104.302 26.0363L97.8075 33.64ZM103.688 80.96L110.759 88.0311C112.939 85.8508 113.991 82.7867 113.611 79.7269L103.688 80.96ZM96.4075 88.24L95.4 98.1891C98.3884 98.4917 101.355 97.435 103.479 95.3111L96.4075 88.24ZM85.3475 87.12L86.355 77.1709C82.6357 76.7942 79.0169 78.5236 76.9735 81.654C74.9302 84.7845 74.8035 88.7933 76.6452 92.0465L85.3475 87.12ZM104.528 121L109.466 129.696C114.264 126.971 115.948 120.875 113.23 116.074L104.528 121ZM93.1875 127.44L84.4749 132.348C85.7795 134.664 87.9526 136.365 90.514 137.076C93.0754 137.787 95.8143 137.448 98.1258 136.136L93.1875 127.44ZM69.5275 85.44L78.2402 80.5319C76.6484 77.7064 73.7854 75.8281 70.5597 75.4934L69.5275 85.44ZM39.8475 82.36L29.9036 81.3021C29.6226 83.9439 30.4043 86.5889 32.0762 88.6534C33.7481 90.718 36.1729 92.0324 38.8153 92.3066L39.8475 82.36ZM41.2475 69.2L42.2853 59.254C36.8001 58.6816 31.887 62.6581 31.3036 68.1421L41.2475 69.2ZM89.5475 74.24L88.5097 84.186C91.5397 84.5022 94.5486 83.4199 96.683 81.2461C98.8173 79.0723 99.8444 76.0441 99.4728 73.0204L89.5475 74.24ZM85.4875 41.2L95.4128 39.9804C94.7807 34.8364 90.3233 31.0277 85.1437 31.2059L85.4875 41.2ZM28.5075 43.16L28.1637 33.1659C22.9654 33.3447 18.7721 37.4787 18.5193 42.674L28.5075 43.16ZM24.4475 126.6L23.9163 136.586C26.5726 136.727 29.1757 135.804 31.1498 134.022C33.1239 132.239 34.3064 129.743 34.4357 127.086L24.4475 126.6ZM21.2758 126.384L25.6158 36.7838L5.63921 35.8162L1.29921 125.416L21.2758 126.384ZM22.6986 43.3711L28.9986 37.0711L14.8564 22.9289L8.55643 29.2289L22.6986 43.3711ZM22.231 39.9954L91.391 37.8954L90.784 17.9046L21.624 20.0046L22.231 39.9954ZM84.5926 35.5037L91.3126 41.2437L104.302 26.0363L97.5824 20.2963L84.5926 35.5037ZM87.8838 34.8731L93.7638 82.1931L113.611 79.7269L107.731 32.4069L87.8838 34.8731ZM96.6164 73.8889L89.3364 81.1689L103.479 95.3111L110.759 88.0311L96.6164 73.8889ZM97.415 78.2909L86.355 77.1709L84.34 97.0691L95.4 98.1891L97.415 78.2909ZM76.6452 92.0465L95.8252 125.926L113.23 116.074L94.0498 82.1935L76.6452 92.0465ZM99.5892 112.304L88.2493 118.744L98.1258 136.136L109.466 129.696L99.5892 112.304ZM101.9 122.532L78.2402 80.5319L60.8149 90.3481L84.4749 132.348L101.9 122.532ZM70.5597 75.4934L40.8797 72.4134L38.8153 92.3066L68.4953 95.3866L70.5597 75.4934ZM49.7914 83.4179L51.1914 70.2579L31.3036 68.1421L29.9036 81.3021L49.7914 83.4179ZM40.2097 79.146L88.5097 84.186L90.5853 64.294L42.2853 59.254L40.2097 79.146ZM99.4728 73.0204L95.4128 39.9804L75.5622 42.4196L79.6222 75.4596L99.4728 73.0204ZM85.1437 31.2059L28.1637 33.1659L28.8513 53.1541L85.8313 51.1941L85.1437 31.2059ZM18.5193 42.674L14.4593 126.114L34.4357 127.086L38.4957 43.646L18.5193 42.674ZM24.9787 116.614L11.8187 115.914L10.7563 135.886L23.9163 136.586L24.9787 116.614ZM121.011 119.6L112.884 125.427C114.388 127.524 116.645 128.959 119.182 129.431L121.011 119.6ZM115.691 112.18L105.781 110.844C105.44 113.372 106.078 115.934 107.564 118.007L115.691 112.18ZM122.411 62.34L115.515 55.0986C113.868 56.667 112.805 58.75 112.501 61.0038L122.411 62.34ZM128.291 56.74L127.475 46.7734C125.196 46.96 123.05 47.9219 121.395 49.4986L128.291 56.74ZM169.311 53.38L174.087 44.5938C172.377 43.6648 170.434 43.2545 168.495 43.4134L169.311 53.38ZM175.751 56.88L184.674 52.3654C183.758 50.5534 182.311 49.0635 180.527 48.0938L175.751 56.88ZM187.651 80.4L196.622 84.8185C198.011 81.9987 197.993 78.6901 196.574 75.8854L187.651 80.4ZM183.031 89.78L185.077 99.5685C188.089 98.9391 190.643 96.9585 192.002 94.1985L183.031 89.78ZM139.491 98.88L129.725 101.027C130.901 106.381 136.171 109.79 141.537 108.668L139.491 98.88ZM136.691 86.14L134.588 76.3637C131.988 76.9231 129.717 78.4955 128.279 80.733C126.841 82.9705 126.354 85.6887 126.925 88.2866L136.691 86.14ZM171.831 78.58L173.935 88.3563C176.965 87.7044 179.522 85.684 180.857 82.8865C182.191 80.089 182.154 76.8306 180.754 74.0649L171.831 78.58ZM165.951 66.96L174.874 62.4449C173.048 58.8361 169.228 56.6826 165.195 56.9887L165.951 66.96ZM134.591 69.34L133.835 59.3687C129.113 59.727 125.291 63.3472 124.676 68.042L134.591 69.34ZM129.551 107.84L119.636 106.542C118.946 111.811 122.498 116.699 127.722 117.671L129.551 107.84ZM177.711 116.8L187.525 118.72C188.038 116.102 187.482 113.387 185.983 111.18C184.483 108.973 182.164 107.457 179.54 106.969L177.711 116.8ZM175.191 129.68L173.362 139.511C178.756 140.515 183.952 136.985 185.005 131.6L175.191 129.68ZM129.138 113.773L123.818 106.353L107.564 118.007L112.884 125.427L129.138 113.773ZM125.602 113.516L132.322 63.6762L112.501 61.0038L105.781 110.844L125.602 113.516ZM129.308 69.5814L135.188 63.9814L121.395 49.4986L115.515 55.0986L129.308 69.5814ZM129.108 66.7066L170.128 63.3466L168.495 43.4134L127.475 46.7734L129.108 66.7066ZM164.536 62.1662L170.976 65.6662L180.527 48.0938L174.087 44.5938L164.536 62.1662ZM166.828 61.3946L178.728 84.9146L196.574 75.8854L184.674 52.3654L166.828 61.3946ZM178.681 75.9815L174.061 85.3615L192.002 94.1985L196.622 84.8185L178.681 75.9815ZM180.986 79.9915L137.446 89.0915L141.537 108.668L185.077 99.5685L180.986 79.9915ZM149.258 96.7334L146.458 83.9934L126.925 88.2866L129.725 101.027L149.258 96.7334ZM138.795 95.9163L173.935 88.3563L169.728 68.8037L134.588 76.3637L138.795 95.9163ZM180.754 74.0649L174.874 62.4449L157.029 71.4751L162.909 83.0951L180.754 74.0649ZM165.195 56.9887L133.835 59.3687L135.348 79.3113L166.708 76.9313L165.195 56.9887ZM124.676 68.042L119.636 106.542L139.467 109.138L144.507 70.638L124.676 68.042ZM127.722 117.671L175.882 126.631L179.54 106.969L131.38 98.0087L127.722 117.671ZM167.897 114.88L165.377 127.76L185.005 131.6L187.525 118.72L167.897 114.88ZM177.02 119.849L122.84 109.769L119.182 129.431L173.362 139.511L177.02 119.849ZM213.022 121.42L203.466 124.365C204.591 128.017 207.699 130.708 211.475 131.3L213.022 121.42ZM191.882 52.82L188.911 43.2714C183.648 44.909 180.702 50.4971 182.326 55.765L191.882 52.82ZM204.482 48.9L214.038 45.9541C213.256 43.4153 211.495 41.2923 209.145 40.0536C206.795 38.8149 204.048 38.5622 201.511 39.3514L204.482 48.9ZM221.702 104.76L212.146 107.706C213.264 111.332 216.338 114.014 220.083 114.628C223.828 115.242 227.598 113.684 229.816 110.605L221.702 104.76ZM257.402 55.2L263.265 47.0988C261.113 45.5417 258.43 44.9045 255.808 45.3278C253.186 45.7511 250.84 47.2001 249.288 49.3551L257.402 55.2ZM268.042 62.9L276.16 68.7391C279.378 64.2647 278.37 58.03 273.905 54.7988L268.042 62.9ZM224.642 123.24L223.095 133.12C226.821 133.703 230.558 132.141 232.76 129.079L224.642 123.24ZM222.579 118.475L201.439 49.875L182.326 55.765L203.466 124.365L222.579 118.475ZM194.853 62.3686L207.453 58.4486L201.511 39.3514L188.911 43.2714L194.853 62.3686ZM194.926 51.8459L212.146 107.706L231.258 101.814L214.038 45.9541L194.926 51.8459ZM229.816 110.605L265.516 61.0449L249.288 49.3551L213.588 98.9151L229.816 110.605ZM251.539 63.3012L262.179 71.0012L273.905 54.7988L263.265 47.0988L251.539 63.3012ZM259.924 57.0609L216.524 117.401L232.76 129.079L276.16 68.7391L259.924 57.0609ZM226.189 113.36L214.569 111.54L211.475 131.3L223.095 133.12L226.189 113.36ZM281.162 120.44L273.59 126.972C275.359 129.023 277.885 130.268 280.589 130.424L281.162 120.44ZM275.002 113.3L265.026 112.602C264.842 115.235 265.706 117.834 267.43 119.832L275.002 113.3ZM278.362 65.28L271.453 58.0501C269.653 59.7698 268.56 62.0989 268.386 64.582L278.362 65.28ZM284.662 59.26L284.24 49.2689C281.814 49.3712 279.508 50.3526 277.753 52.0301L284.662 59.26ZM331.142 57.3L337.986 50.0093C336.026 48.1689 333.407 47.1956 330.72 47.3089L331.142 57.3ZM338.002 63.74L347.998 63.4755C347.927 60.8066 346.792 58.2766 344.846 56.4493L338.002 63.74ZM339.402 116.66L346.327 123.874C348.358 121.924 349.473 119.209 349.398 116.396L339.402 116.66ZM332.402 123.38L331.829 133.364C334.604 133.523 337.321 132.519 339.327 130.594L332.402 123.38ZM326.102 109.8L325.541 119.784C328.329 119.941 331.057 118.924 333.062 116.98C335.068 115.036 336.168 112.341 336.098 109.549L326.102 109.8ZM325.122 70.74L335.118 70.4892C335.051 67.8101 333.911 65.27 331.955 63.4387C329.998 61.6075 327.388 60.6383 324.71 60.7485L325.122 70.74ZM291.102 72.14L290.69 62.1485C285.589 62.3584 281.465 66.3778 281.124 71.4722L291.102 72.14ZM288.722 107.7L278.744 107.032C278.566 109.697 279.461 112.322 281.229 114.323C282.998 116.324 285.494 117.534 288.161 117.684L288.722 107.7ZM288.733 113.908L282.573 106.768L267.43 119.832L273.59 126.972L288.733 113.908ZM284.977 113.998L288.337 65.978L268.386 64.582L265.026 112.602L284.977 113.998ZM285.27 72.5099L291.57 66.4899L277.753 52.0301L271.453 58.0501L285.27 72.5099ZM285.083 69.2511L331.563 67.2911L330.72 47.3089L284.24 49.2689L285.083 69.2511ZM324.297 64.5907L331.157 71.0307L344.846 56.4493L337.986 50.0093L324.297 64.5907ZM328.005 64.0045L329.405 116.924L349.398 116.396L347.998 63.4755L328.005 64.0045ZM332.476 109.446L325.476 116.166L339.327 130.594L346.327 123.874L332.476 109.446ZM332.974 113.396L281.734 110.456L280.589 130.424L331.829 133.364L332.974 113.396ZM336.098 109.549L335.118 70.4892L315.125 70.9908L316.105 110.051L336.098 109.549ZM324.71 60.7485L290.69 62.1485L291.513 82.1315L325.533 80.7315L324.71 60.7485ZM281.124 71.4722L278.744 107.032L298.699 108.368L301.079 72.8078L281.124 71.4722ZM288.161 117.684L325.541 119.784L326.662 99.8157L289.282 97.7157L288.161 117.684Z" fill="white" mask="url(#path-3-outside-1_9_57)"/>
<ellipse cx="315.5" cy="84.5" rx="2.5" ry="6.5" fill="#222831"/>
<ellipse cx="300.5" cy="86.5" rx="2.5" ry="6.5" fill="#222831"/>
</g>
<defs>
<clipPath id="clip0_9_57">
<rect width="350" height="150" fill="white"/>
</clipPath>
</defs>
</svg>
